<?xml version="1.0" encoding="UTF-8" standalone="no"?>
<!-- Created with Inkscape (http://www.inkscape.org/) -->

<svg
   width="50mm"
   height="100mm"
   viewBox="0 0 50 100"
   version="1.1"
   id="svg1"
   inkscape:version="1.3.2 (091e20e, 2023-11-25, custom)"
   sodipodi:docname="arrow-lite.svg"
   xmlns:inkscape="http://www.inkscape.org/namespaces/inkscape"
   xmlns:sodipodi="http://sodipodi.sourceforge.net/DTD/sodipodi-0.dtd"
   xmlns="http://www.w3.org/2000/svg"
   xmlns:svg="http://www.w3.org/2000/svg">
  <sodipodi:namedview
     id="namedview1"
     pagecolor="#ffffff"
     bordercolor="#000000"
     borderopacity="0.25"
     inkscape:showpageshadow="2"
     inkscape:pageopacity="0.0"
     inkscape:pagecheckerboard="0"
     inkscape:deskcolor="#d1d1d1"
     inkscape:document-units="mm"
     inkscape:zoom="1.4316757"
     inkscape:cx="85.56407"
     inkscape:cy="179.16069"
     inkscape:window-width="1920"
     inkscape:window-height="1009"
     inkscape:window-x="-8"
     inkscape:window-y="-8"
     inkscape:window-maximized="1"
     inkscape:current-layer="layer1" />
  <defs
     id="defs1" />
  <g
     inkscape:label="Слой 1"
     inkscape:groupmode="layer"
     id="layer1">
    <path
       d="m 45.46644,98.758703 c 0.379518,-0.443927 1.308722,-1.818548 -0.0237,-3.478641 C 34.020448,80.626907 22.392465,66.174792 11.006561,51.488137 c -0.549627,-0.750106 -0.549612,-1.896596 0,-2.646714 C 22.470045,34.232022 33.961985,19.642514 45.443205,5.0479173 46.4656,3.7000743 46.18991,2.2987443 45.704828,1.5485503 45.154656,0.80928733 43.578236,0.21832333 42.541821,1.5070303 30.268782,17.466036 17.439538,32.893359 5.2667372,48.943056 c -0.463199,0.718135 -0.463395,1.725972 0,2.443973 12.3033598,15.746967 24.6892308,31.436443 37.0435938,47.140718 1.344021,1.779003 2.726055,0.672688 3.156109,0.230956 z"
       style="opacity:0.5;fill:#828282;stroke-width:0.171529"
       id="path4"
       sodipodi:nodetypes="cccscccsscc" />
  </g>
</svg>
