<?xml version="1.0" encoding="UTF-8" standalone="no"?>
<!-- Created with Inkscape (http://www.inkscape.org/) -->

<svg
   width="50mm"
   height="100mm"
   viewBox="0 0 50 100"
   version="1.1"
   id="svg1"
   inkscape:version="1.3.2 (091e20e, 2023-11-25, custom)"
   sodipodi:docname="arrow.svg"
   xmlns:inkscape="http://www.inkscape.org/namespaces/inkscape"
   xmlns:sodipodi="http://sodipodi.sourceforge.net/DTD/sodipodi-0.dtd"
   xmlns="http://www.w3.org/2000/svg"
   xmlns:svg="http://www.w3.org/2000/svg">
  <sodipodi:namedview
     id="namedview1"
     pagecolor="#ffffff"
     bordercolor="#000000"
     borderopacity="0.25"
     inkscape:showpageshadow="2"
     inkscape:pageopacity="0.0"
     inkscape:pagecheckerboard="0"
     inkscape:deskcolor="#d1d1d1"
     inkscape:document-units="mm"
     inkscape:zoom="1.4316757"
     inkscape:cx="84.865589"
     inkscape:cy="179.16069"
     inkscape:window-width="1920"
     inkscape:window-height="1009"
     inkscape:window-x="-8"
     inkscape:window-y="-8"
     inkscape:window-maximized="1"
     inkscape:current-layer="layer1" />
  <defs
     id="defs1" />
  <g
     inkscape:label="Слой 1"
     inkscape:groupmode="layer"
     id="layer1">
    <path
       d="M 5.5921574,1.4964206 C 5.2126391,1.9403477 4.2834354,3.3149685 5.6158546,4.9750616 17.038149,19.628216 28.666132,34.080331 40.052036,48.766986 c 0.549627,0.750106 0.549612,1.896596 0,2.646714 C 28.588552,66.023101 17.096612,80.612609 5.6153917,95.207206 4.5929976,96.555049 4.8686868,97.956379 5.3537687,98.706573 5.9039408,99.445836 7.4803608,100.0368 8.5167765,98.748093 20.789815,82.789087 33.619059,67.361764 45.79186,51.312067 c 0.463199,-0.718135 0.463395,-1.725972 0,-2.443973 C 33.4885,33.121127 21.102629,17.431651 8.7482659,1.7273764 7.4042447,-0.0516238 6.0222107,1.0546883 5.5921574,1.4964206 Z"
       style="opacity:0.5;fill:#828282;stroke-width:0.171529"
       id="path4"
       sodipodi:nodetypes="cccscccsscc" />
  </g>
</svg>
