<?xml version="1.0" encoding="UTF-8" standalone="no"?>
<!-- Created with Inkscape (http://www.inkscape.org/) -->

<svg
   width="40mm"
   height="40mm"
   viewBox="0 0 40 40"
   version="1.1"
   id="svg1"
   xml:space="preserve"
   inkscape:version="1.3.2 (091e20e, 2023-11-25, custom)"
   sodipodi:docname="instagram.svg"
   xmlns:inkscape="http://www.inkscape.org/namespaces/inkscape"
   xmlns:sodipodi="http://sodipodi.sourceforge.net/DTD/sodipodi-0.dtd"
   xmlns:xlink="http://www.w3.org/1999/xlink"
   xmlns="http://www.w3.org/2000/svg"
   xmlns:svg="http://www.w3.org/2000/svg"><sodipodi:namedview
     id="namedview1"
     pagecolor="#ffffff"
     bordercolor="#000000"
     borderopacity="0.25"
     inkscape:showpageshadow="2"
     inkscape:pageopacity="0.0"
     inkscape:pagecheckerboard="0"
     inkscape:deskcolor="#d1d1d1"
     inkscape:document-units="mm"
     inkscape:zoom="1.148892"
     inkscape:cx="-139.26461"
     inkscape:cy="147.53344"
     inkscape:window-width="1920"
     inkscape:window-height="1009"
     inkscape:window-x="-8"
     inkscape:window-y="-8"
     inkscape:window-maximized="1"
     inkscape:current-layer="layer2" /><defs
     id="defs1"><linearGradient
       id="linearGradient7"
       inkscape:collect="always"><stop
         style="stop-color:#f8ff00;stop-opacity:1;"
         offset="0"
         id="stop7" /><stop
         style="stop-color:#ff8b00;stop-opacity:1;"
         offset="0.20263591"
         id="stop10" /><stop
         style="stop-color:#f84800;stop-opacity:1;"
         offset="0.28665569"
         id="stop9" /><stop
         style="stop-color:#ed0057;stop-opacity:1;"
         offset="0.41680396"
         id="stop11" /><stop
         style="stop-color:#9d00e9;stop-opacity:1;"
         offset="0.58484352"
         id="stop12" /><stop
         style="stop-color:#8004ff;stop-opacity:1;"
         offset="0.67710048"
         id="stop19" /><stop
         style="stop-color:#1b0fff;stop-opacity:1;"
         offset="0.82866555"
         id="stop14" /><stop
         style="stop-color:#0300ff;stop-opacity:1;"
         offset="1"
         id="stop13" /></linearGradient><radialGradient
       inkscape:collect="always"
       xlink:href="#linearGradient7"
       id="radialGradient14"
       cx="212.85802"
       cy="-13.175639"
       fx="212.85802"
       fy="-13.175639"
       r="16.860624"
       gradientUnits="userSpaceOnUse"
       gradientTransform="matrix(2.4617222,1.6463876,-1.0929428,1.6341964,-378.92414,-261.48251)" /></defs><g
     inkscape:groupmode="layer"
     id="layer2"
     inkscape:label="Слой 2"
     style="display:inline"
     transform="translate(-158.12025,-55.203671)"><circle
       style="opacity:1;fill:url(#radialGradient14);stroke-width:0.295726;stroke-dasharray:none"
       id="path6"
       cx="178.32452"
       cy="75.287376"
       r="18.851112" /><path
       d="m 173.82557,65.832157 c -2.87112,0 -5.18263,2.310998 -5.18263,5.182113 v 8.719364 c 0,2.871115 2.31151,5.18263 5.18263,5.18263 h 8.58397 c 2.87111,0 5.18263,-2.311515 5.18263,-5.18263 V 71.01427 c 0,-2.871115 -2.31152,-5.182113 -5.18263,-5.182113 z m 0,1.77767 h 8.73228 c 1.83142,0 3.30574,1.474325 3.30574,3.305741 v 8.867676 c 0,1.831416 -1.47432,3.305741 -3.30574,3.305741 h -8.73228 c -1.83142,0 -3.30575,-1.474325 -3.30575,-3.305741 v -8.867676 c 0,-1.831416 1.47433,-3.305741 3.30575,-3.305741 z"
       style="opacity:1;fill:#ffffff;stroke-width:0.529"
       id="path22" /><path
       d="m 178.14003,70.426192 a 4.9387288,4.9387288 0 0 0 -4.93872,4.938717 4.9387288,4.9387288 0 0 0 4.93872,4.938716 4.9387288,4.9387288 0 0 0 4.93872,-4.938716 4.9387288,4.9387288 0 0 0 -4.93872,-4.938717 z m 0,1.629875 a 3.3089483,3.3089483 0 0 1 3.30884,3.308842 3.3089483,3.3089483 0 0 1 -3.30884,3.308842 3.3089483,3.3089483 0 0 1 -3.30884,-3.308842 3.3089483,3.3089483 0 0 1 3.30884,-3.308842 z"
       style="opacity:1;fill:#ffffff;stroke-width:0.581319"
       id="path24" /><circle
       style="opacity:1;fill:#ffffff;fill-opacity:1;stroke-width:0.575;stroke-dasharray:none"
       id="path25"
       cx="183.37502"
       cy="80.451889"
       r="1.2346822" /></g></svg>
