<?xml version="1.0" encoding="UTF-8" standalone="no"?>
<svg
   width="107"
   height="108"
   viewBox="0 0 107 108"
   fill="none"
   version="1.1"
   id="svg20"
   sodipodi:docname="logo.svg"
   inkscape:version="1.3.2 (091e20e, 2023-11-25, custom)"
   xmlns:inkscape="http://www.inkscape.org/namespaces/inkscape"
   xmlns:sodipodi="http://sodipodi.sourceforge.net/DTD/sodipodi-0.dtd"
   xmlns="http://www.w3.org/2000/svg"
   xmlns:svg="http://www.w3.org/2000/svg">
  <defs
     id="defs20" />
  <sodipodi:namedview
     id="namedview20"
     pagecolor="#ffffff"
     bordercolor="#000000"
     borderopacity="0.25"
     inkscape:showpageshadow="2"
     inkscape:pageopacity="0.0"
     inkscape:pagecheckerboard="0"
     inkscape:deskcolor="#d1d1d1"
     inkscape:zoom="11.800869"
     inkscape:cx="39.785205"
     inkscape:cy="58.597379"
     inkscape:window-width="1920"
     inkscape:window-height="1009"
     inkscape:window-x="-8"
     inkscape:window-y="-8"
     inkscape:window-maximized="1"
     inkscape:current-layer="svg20" />
  <path
     d="M53.5704 10.4377C29.7312 10.4377 10.3358 30.005 10.3358 54.0717C10.3358 78.129 29.7312 97.7056 53.5704 97.7056C77.4096 97.7056 96.8003 78.129 96.8003 54.0717C96.8003 30.005 77.4096 10.4377 53.5704 10.4377ZM53.5704 98.1044C29.5151 98.1044 9.94537 78.3518 9.94537 54.0717C9.94537 29.7962 29.5151 10.0389 53.5704 10.0389C77.6258 10.0389 97.1954 29.7962 97.1954 54.0717C97.1954 78.3518 77.6258 98.1044 53.5704 98.1044Z"
     fill="#D9D9D9"
     id="path1" />
  <path
     d="M53.5 2.94938C25.6087 2.94938 2.91661 25.8426 2.91661 54C2.91661 82.1465 25.6087 105.051 53.5 105.051C81.3913 105.051 104.078 82.1465 104.078 54C104.078 25.8426 81.3913 2.94938 53.5 2.94938ZM53.5 105.517C25.3558 105.517 2.45978 82.4072 2.45978 54C2.45978 25.5983 25.3558 2.48279 53.5 2.48279C81.6442 2.48279 104.54 25.5983 104.54 54C104.54 82.4072 81.6442 105.517 53.5 105.517Z"
     fill="#D9D9D9"
     id="path2" />
  <path
     d="M100.02 54.271C99.4408 53.7549 98.9574 53.4875 98.9504 52.6312C99.0201 51.6694 100.682 53.2412 100.949 53.464C101.565 53.9684 102.767 54.5431 102.618 55.5026C102.437 56.6615 100.247 54.4704 100.02 54.271ZM100.559 66.9741C100.373 66.6728 100.175 66.3793 99.966 66.0944C100.812 62.7796 101.335 59.3218 101.467 55.7607C101.73 55.9366 102.002 56.0656 102.244 56.0774C102.084 59.7615 101.519 63.4162 100.559 66.9741ZM100.587 68.2503C100.131 69.3294 98.6901 66.8662 98.532 66.6222C98.0788 65.9185 97.5442 65.4375 97.7767 64.5344C98.0091 63.8681 98.3856 64.4171 98.5832 64.6423C98.9155 65.0176 99.1967 65.4493 99.4896 65.8622C99.9474 66.5049 100.956 67.3706 100.587 68.2503ZM95.6477 78.8069C95.5484 78.4643 95.4305 78.1276 95.2944 77.7981C97.0122 74.7743 98.3941 71.5684 99.4152 68.2386C99.6337 68.4849 99.8731 68.6726 100.108 68.7195C99.0099 72.2437 97.5133 75.6285 95.6477 78.8069ZM95.3479 80.0502C94.6158 80.998 93.8976 78.3025 93.7837 77.9389C93.5257 77.1319 93.1329 76.5337 93.5885 75.7267C94.0649 75.0229 94.5182 76.4633 94.56 76.5572C94.7204 76.9442 94.8621 77.343 95.0132 77.7419C95.2782 78.4222 95.8894 79.3582 95.3479 80.0502ZM87.864 88.9178C87.857 88.5659 87.8222 88.214 87.778 87.8644C90.1948 85.3655 92.3442 82.6166 94.1904 79.6631C94.3299 79.9564 94.5042 80.2144 94.7111 80.3552C92.7481 83.4546 90.4504 86.3261 87.864 88.9178ZM87.5735 86.3185C89.8689 83.8566 91.8963 81.1536 93.621 78.2556C93.7535 78.584 93.8883 78.9007 93.9975 79.194C92.1972 82.126 90.092 84.8557 87.7176 87.3366C87.6688 86.9988 87.6176 86.6563 87.5735 86.3185ZM87.2644 90.079C86.3114 90.8062 86.3114 88.0052 86.2928 87.6299C86.2487 86.7853 86.0232 86.105 86.6717 85.4388C87.3759 84.8406 87.5037 87.5126 87.5316 87.7612C87.613 88.4861 87.9663 89.5394 87.2644 90.079ZM77.7515 96.7461C77.8375 96.4059 77.8909 96.0423 77.9397 95.6904C80.9246 93.8868 83.7067 91.7615 86.2371 89.3518C86.2928 89.6802 86.3881 89.9852 86.5462 90.1728C83.8684 92.6902 80.9182 94.8952 77.7515 96.7461ZM76.8822 97.661C75.755 98.1161 76.5522 95.1415 76.6289 94.7544C76.7799 94.0037 76.7776 93.4407 77.5004 93.0184C78.3488 92.6102 77.8165 94.9538 77.7817 95.1767C77.6562 95.9602 77.7677 97.2973 76.8822 97.661ZM76.1338 96.2417C73.1176 97.9012 69.9298 99.2213 66.6279 100.178L67.0137 99.2304C70.2676 98.2334 73.3611 96.8751 76.2756 95.2353C76.2291 95.5872 76.1873 95.9226 76.1338 96.2417ZM65.9609 101.644L65.9957 101.597C66.1514 101.292 66.2839 100.976 66.4164 100.671C69.7681 99.7205 73.0058 98.4004 76.0711 96.7343C76.0478 97.0628 76.0711 97.3795 76.1873 97.6023C72.9402 99.3341 69.5096 100.69 65.9609 101.644ZM64.8987 102.264C63.7087 102.381 65.2357 99.7465 65.41 99.3946C65.7494 98.7026 65.8888 98.163 66.6999 97.9401C67.6343 97.7642 66.4071 100.131 66.3002 100.366C66.0097 101.046 65.7819 102.17 64.8987 102.264ZM54.3422 102.043C54.5514 101.773 54.7559 101.492 54.9605 101.222C58.3257 101.112 61.6691 100.633 64.9312 99.7911C64.8011 100.108 64.6779 100.424 64.5477 100.706L64.5408 100.729C61.2544 101.515 57.8518 101.996 54.3422 102.043ZM64.2665 102.043C60.8197 102.827 57.2475 103.272 53.5706 103.272C53.4939 103.272 53.4172 103.272 53.3428 103.261L53.3893 103.214C53.6078 102.979 53.8123 102.721 54.0168 102.451C57.5775 102.428 61.0336 101.959 64.3688 101.185C64.2746 101.459 64.2398 101.754 64.2665 102.043ZM52.1575 103.577C51.0024 103.39 53.1708 101.185 53.3754 100.95C53.8844 100.366 54.1516 99.8849 55 99.8732C55.9529 99.9435 54.3887 101.621 54.1726 101.891C53.6705 102.51 53.1034 103.73 52.1575 103.577ZM51.5881 103.202C47.9289 103.059 44.2984 102.489 40.769 101.504C41.0618 101.328 41.3454 101.128 41.6266 100.917C44.92 101.785 48.3551 102.287 51.8925 102.418C51.7159 102.686 51.5881 102.956 51.5881 103.202ZM39.5232 101.527C38.4494 101.07 40.8945 99.6151 41.1362 99.4532C41.8381 98.9958 42.3099 98.4562 43.2047 98.6908C43.8694 98.9254 43.3232 99.3125 43.1024 99.5119C42.7259 99.8403 42.296 100.122 41.8892 100.427C41.257 100.882 40.3948 101.9 39.5232 101.527ZM39.0677 100.976C35.5992 99.8665 32.2631 98.3733 29.1201 96.5232C29.4455 96.4176 29.7709 96.3003 30.0916 96.1713C33.1017 97.8868 36.2845 99.2733 39.586 100.307C39.356 100.478 39.1767 100.709 39.0677 100.976ZM27.8325 96.2417C26.8912 95.5027 29.5687 94.7778 29.9243 94.6605C30.7192 94.4025 31.3142 94.0037 32.116 94.4611C32.8109 94.9421 31.3885 95.3995 31.2909 95.4464C30.9028 95.6106 30.51 95.7514 30.1195 95.9015C29.4455 96.1713 28.5228 96.7812 27.8325 96.2417ZM19.0587 88.6832C19.4027 88.6714 19.756 88.6362 20.1046 88.6011C22.5853 91.0415 25.3178 93.2066 28.2555 95.0594C27.9867 95.1635 27.7472 95.3327 27.5583 95.552C24.4797 93.5902 21.6287 91.2862 19.0587 88.6832ZM17.8966 88.0732C17.1761 87.1138 19.9489 87.1138 20.3208 87.102C21.1528 87.0551 21.8315 86.8322 22.4915 87.4774C23.0889 88.1929 20.4346 88.3219 20.1906 88.3454C19.4748 88.4392 18.4242 88.7911 17.8943 88.0756M11.3633 78.4902C11.7003 78.5723 12.049 78.631 12.3999 78.6779C14.1736 81.6833 16.2618 84.4879 18.6287 87.0434C18.3381 87.0735 18.0591 87.1741 17.8153 87.3366C15.3456 84.6393 13.1808 81.673 11.361 78.4925M10.3895 77.6011C9.93395 76.4633 12.8833 77.2727 13.2645 77.343C14.0106 77.4955 14.5591 77.4955 14.9844 78.2204C15.3888 79.0767 13.067 78.5488 12.8415 78.5136C12.0629 78.3846 10.7497 78.5043 10.3895 77.6011ZM6.49881 66.6199C6.8056 66.7841 7.12633 66.9249 7.45172 67.0539C8.39661 70.4327 9.70437 73.6973 11.3517 76.7894C11.0611 76.7427 10.7635 76.7718 10.4871 76.8739C8.78138 73.6182 7.44355 70.1771 6.49881 66.6199ZM5.82944 65.5079C5.70161 64.3021 8.31632 65.8481 8.6696 66.024C9.35291 66.3642 9.88282 66.5049 10.1036 67.3237C10.2779 68.2738 7.94212 67.0304 7.70273 66.9249C7.03104 66.6199 5.92008 66.3994 5.82944 65.5079ZM4.82307 54.0716C4.82307 53.9895 4.83003 53.9191 4.83236 53.837L4.87883 53.8839C5.1159 54.1068 5.37622 54.3179 5.63653 54.5291C5.67973 58.0449 6.1037 61.5455 6.90089 64.9684C6.62526 64.8775 6.33478 64.8417 6.04559 64.8628C5.24426 61.3224 4.83269 57.7032 4.82307 54.0716ZM7.12169 53.8722C7.69808 54.3883 8.18384 54.6581 8.18616 55.5144C8.11876 56.4762 6.45696 54.9044 6.19201 54.6815C5.5761 54.1772 4.37216 53.6024 4.52091 52.643C4.70685 51.4841 6.88927 53.6752 7.12169 53.8722ZM6.57318 41.148C6.74749 41.4412 6.95434 41.7345 7.16119 42.016C6.28922 45.4027 5.78961 48.876 5.67139 52.3732C5.40643 52.1972 5.13218 52.0682 4.89511 52.0682C5.04851 48.3077 5.61096 44.6528 6.57318 41.148ZM6.54993 39.8953C7.0078 38.8044 8.4488 41.2794 8.60684 41.5233C9.06238 42.2271 9.59694 42.708 9.3622 43.6112C9.1321 44.2774 8.75326 43.7262 8.55803 43.5033C8.22567 43.1279 7.94444 42.6963 7.65159 42.2834C7.19373 41.6406 6.18038 40.7726 6.54993 39.8953ZM11.5144 29.3973C11.612 29.7258 11.7329 30.0542 11.8654 30.3826C10.1593 33.4135 8.7854 36.6228 7.76781 39.9539C7.55863 39.7076 7.32853 39.5082 7.10076 39.4378C8.19845 35.9357 9.67727 32.5681 11.5144 29.3973ZM11.791 28.0953C12.5254 27.1476 13.2413 29.8407 13.3575 30.2067C13.6155 31.0019 14.0083 31.6119 13.5527 32.4189C13.0739 33.1226 12.6184 31.6822 12.5789 31.5884C12.4232 31.1896 12.2814 30.7908 12.1257 30.4037C11.863 29.7234 11.2518 28.785 11.791 28.0953ZM19.2749 19.2372C19.2842 19.5891 19.319 19.941 19.3632 20.2929C16.9452 22.7939 14.8022 25.5515 12.9717 28.5176C12.8603 28.2471 12.6885 28.0062 12.4697 27.8138C14.4151 24.7085 16.6976 21.8318 19.2749 19.2372ZM19.5677 21.8271C17.2714 24.2947 15.2454 27.005 13.5248 29.9111C13.397 29.5827 13.2668 29.2777 13.1576 28.9727C14.951 26.0331 17.0517 23.2962 19.4236 20.809C19.4724 21.1468 19.5235 21.4893 19.5677 21.8271ZM19.8768 18.0666C20.8297 17.3393 20.8297 20.1404 20.8483 20.5157C20.8902 21.3462 21.1179 22.0382 20.4672 22.7068C19.7653 23.3027 19.6351 20.633 19.6072 20.3843C19.5259 19.6595 19.1726 18.5921 19.8768 18.0666ZM29.3758 11.4699C29.2944 11.81 29.2363 12.1596 29.1899 12.5255C26.2117 14.3092 23.4343 16.4141 20.9064 18.8032C20.8707 18.5102 20.7689 18.2293 20.609 17.9821C23.2859 15.4936 26.2259 13.3097 29.3758 11.4699ZM30.259 10.4846C31.3862 10.0271 30.589 13.0041 30.5123 13.3912C30.3612 14.1419 30.3636 14.6908 29.6407 15.1272C28.7924 15.5353 29.3223 13.1918 29.3595 12.9689C29.485 12.1713 29.3711 10.8482 30.259 10.4846ZM31.0004 11.9625C33.994 10.3204 37.1595 8.97383 40.4924 8.01201L40.1066 8.9621C36.8914 9.9514 33.7909 11.2869 30.8586 12.9455C30.9028 12.6053 30.9446 12.2651 30.9981 11.9602M41.1385 6.55989C40.9758 6.86486 40.8364 7.19329 40.6992 7.52172C37.3175 8.48354 34.1032 9.82774 31.0608 11.4582C31.1033 11.1661 31.0738 10.868 30.9748 10.5902C34.2008 8.86314 37.6105 7.51108 41.1385 6.55989ZM42.2379 5.87958C43.4278 5.75055 41.9008 8.39909 41.7265 8.75097C41.3895 9.44302 41.2501 9.97085 40.4389 10.2054C39.5046 10.379 40.7318 8.01201 40.834 7.77742C41.1292 7.09711 41.357 5.97341 42.2379 5.87958ZM52.7897 6.10244C52.5805 6.38395 52.3736 6.66546 52.1691 6.93524C48.8043 7.0505 45.4616 7.53025 42.1983 8.36624C42.3308 8.0472 42.454 7.71877 42.5911 7.43961L42.5935 7.42788C45.9348 6.61571 49.3535 6.1713 52.7897 6.10244ZM42.8723 6.10244C46.3814 5.29339 49.9688 4.8811 53.5683 4.87318H53.796L53.7496 4.9201C53.5284 5.16927 53.3175 5.42754 53.1174 5.69425C49.5567 5.72944 46.103 6.18689 42.7654 6.97043C42.8617 6.69204 42.8982 6.39615 42.8723 6.10244ZM54.9837 4.57056C56.1365 4.75823 53.968 6.96104 53.7658 7.19563C53.2545 7.77038 52.9872 8.26068 52.1389 8.26068C51.1883 8.20203 52.7502 6.51532 52.9663 6.25727C53.4707 5.62387 54.0354 4.41808 54.9814 4.57056M55.5508 4.94591C59.2834 5.09839 62.9069 5.67314 66.3699 6.63496C66.077 6.80856 65.7958 7.01969 65.5146 7.23082C62.1573 6.35281 58.7148 5.84933 55.2487 5.72944C55.4253 5.46201 55.5508 5.1805 55.5508 4.94591ZM67.618 6.62089C68.6918 7.07834 66.2467 8.53046 66.005 8.69467C65.3008 9.15212 64.829 9.69168 63.9365 9.45709C63.2718 9.2225 63.8156 8.83542 64.0364 8.63602C64.4153 8.30759 64.8429 8.0167 65.2497 7.72112C65.8818 7.26601 66.7441 6.24554 67.618 6.62089ZM68.0689 7.17217C71.5383 8.28063 74.8753 9.77393 78.0187 11.6247C77.6912 11.7314 77.3672 11.8487 77.0472 11.9766C74.0379 10.2612 70.8559 8.87474 67.5552 7.84076C67.797 7.62963 67.9968 7.40677 68.0689 7.17217ZM79.3063 11.9062C80.2476 12.6428 77.5725 13.3701 77.2169 13.4874C76.422 13.7454 75.827 14.1442 75.0229 13.6868C74.3302 13.1941 75.7503 12.7367 75.8479 12.7015C76.2361 12.5373 76.6312 12.3965 77.0193 12.2464C77.6933 11.9766 78.6184 11.3549 79.3063 11.9062ZM88.0825 19.4624C87.7325 19.467 87.3831 19.4945 87.0366 19.5445C84.555 17.1048 81.8217 14.9405 78.8833 13.0886C79.1533 12.9808 79.3928 12.8076 79.5806 12.5842C82.6577 14.5527 85.5091 16.8595 88.0825 19.4624ZM89.2446 20.0606C89.9604 21.0224 87.1923 21.0224 86.8204 21.0459C85.9884 21.0928 85.3097 21.3133 84.6497 20.6588C84.0523 19.955 86.7042 19.826 86.9483 19.7908C87.6641 19.7087 88.7147 19.3568 89.2446 20.0606ZM95.7802 29.6554C95.4365 29.5747 95.089 29.5121 94.7389 29.4677C92.9651 26.4631 90.8769 23.6593 88.5101 21.1045C88.8007 21.0742 89.0797 20.9736 89.3236 20.8113C91.7941 23.5085 93.9596 26.4748 95.7802 29.6554ZM96.7494 30.5468C97.2049 31.6846 94.2555 30.8753 93.8743 30.8049C93.1306 30.6524 92.5821 30.6524 92.1544 29.9134C91.75 29.0595 94.0742 29.5991 94.2973 29.6319C95.0759 29.7633 96.3914 29.646 96.7494 30.5468ZM100.64 41.5257C100.336 41.3615 100.013 41.2207 99.6871 41.08C98.7412 37.7052 97.4335 34.4447 95.7872 31.3562C96.1102 31.3914 96.4263 31.3796 96.6517 31.2741C98.3585 34.5292 99.6964 37.9681 100.64 41.5257ZM101.314 42.64C101.437 43.8364 98.8225 42.2998 98.4693 42.1239C97.7883 41.7837 97.2584 41.643 97.0376 40.8243C96.8609 39.8742 99.1991 41.1152 99.4385 41.2231C100.108 41.514 101.223 41.7485 101.314 42.64ZM98.8528 42.6048C99.1712 42.7338 99.4873 42.8629 99.7708 42.9895L99.7801 43.0013C100.561 46.3184 101.035 49.7505 101.093 53.2904C100.817 53.0793 100.54 52.8682 100.273 52.657C100.161 49.2643 99.6848 45.8939 98.8528 42.6048ZM97.3885 41.7368C97.6651 41.9949 98.0114 42.206 98.381 42.3819C99.206 45.5911 99.7383 48.92 99.8638 52.3638C99.5849 52.1644 99.2827 52.0236 99.0643 52.0823C98.9002 48.5802 98.3394 45.1089 97.3885 41.7368ZM94.3136 31.145C94.653 31.2037 94.9876 31.2389 95.2967 31.2975C96.9398 34.3358 98.2513 37.545 99.2084 40.8688L98.2601 40.4841C97.2816 37.2022 95.9359 34.0845 94.3136 31.145ZM97.7906 40.3082C97.4629 40.2026 97.1514 40.1674 96.9748 40.3199C95.9269 36.9591 94.4998 33.7311 92.7216 30.6993C93.0469 30.887 93.4188 30.9925 93.8093 31.0629C95.464 33.9893 96.799 37.0884 97.7906 40.3058M87.0319 21.2899C87.3736 21.2429 87.7059 21.196 88.022 21.1726C90.3742 23.6804 92.4545 26.4345 94.2276 29.3879C93.886 29.3504 93.549 29.3176 93.2166 29.2706C91.4456 26.3941 89.3705 23.7185 87.0319 21.2899ZM92.7192 29.2237C92.3706 29.2003 92.0638 29.2589 91.9453 29.4583C90.0655 26.4863 87.859 23.7382 85.3678 21.2664C85.7327 21.3602 86.1255 21.3602 86.5253 21.3368C88.8615 23.7363 90.9379 26.3802 92.7192 29.2237ZM77.5097 13.6492C77.8258 13.5202 78.1373 13.3912 78.4324 13.2856C81.3446 15.0925 84.0562 17.2097 86.5206 19.6008C86.1836 19.6595 85.8489 19.7064 85.5212 19.7533C83.0764 17.4332 80.3903 15.3866 77.5097 13.6492ZM85.0285 19.8354C84.6915 19.9058 84.394 20.0231 84.3219 20.2459C81.7547 17.8701 78.9273 15.7977 75.8944 14.0692C76.2709 14.0692 76.6498 13.9659 77.0333 13.8252C79.9027 15.5357 82.5829 17.5505 85.0285 19.8354ZM66.3815 8.72751C66.6511 8.52811 66.9161 8.32871 67.1741 8.14104C70.4415 9.13664 73.5933 10.4839 76.5754 12.1596C76.2686 12.3003 75.9641 12.4294 75.662 12.5584C72.7152 10.9457 69.6035 9.66115 66.3815 8.72751ZM75.2134 12.7578C74.9113 12.9103 74.6487 13.0979 74.6022 13.3208C71.5743 11.7108 68.3751 10.4532 65.066 9.57204C65.3682 9.41956 65.6634 9.22015 65.9585 9.00902C69.1984 9.93331 72.3012 11.1884 75.2134 12.7578ZM54.3469 6.88832C54.5096 6.67719 54.6723 6.45433 54.8303 6.27838L54.9628 6.11417C58.4537 6.21973 61.847 6.70065 65.1032 7.5311C64.8398 7.74022 64.5779 7.95136 64.3176 8.16449C61.051 7.36871 57.707 6.94071 54.3469 6.88832ZM63.9318 8.48119C63.6785 8.70405 63.453 8.95037 63.4344 9.17324C60.1974 8.4337 56.8895 8.05608 53.5706 8.0472C53.4707 8.0472 53.3754 8.05893 53.2778 8.05893C53.545 7.83607 53.7984 7.56629 54.0354 7.27539C57.4404 7.30824 60.7477 7.7305 63.9318 8.48119ZM51.595 8.15277C48.1249 8.31719 44.6849 8.88393 41.343 9.84182C41.6057 9.56031 41.8079 9.22015 41.9822 8.84481C45.2153 7.98549 48.5311 7.4821 51.8716 7.34343C51.681 7.62494 51.5369 7.9299 51.595 8.15277ZM39.9392 10.2641C36.6135 11.3232 33.4181 12.7611 30.4147 14.5501C30.5937 14.2216 30.6982 13.8463 30.7703 13.4616C33.6677 11.7875 36.7385 10.4399 39.9276 9.44302C39.8207 9.77144 39.7882 10.0858 39.9392 10.2641ZM28.9923 14.0574C26.1448 15.8445 23.4955 17.935 21.0901 20.2929C21.0459 19.9527 21.0017 19.6125 20.9692 19.2958C23.4564 16.9238 26.1873 14.8264 29.1155 13.0393C29.076 13.3795 29.0388 13.7196 28.9923 14.0574ZM21.1342 20.8066C23.5099 18.4506 26.1278 16.3572 28.9435 14.5618C28.9295 14.9019 28.983 15.2186 29.1875 15.3359C26.2401 17.233 23.5158 19.4618 21.0668 21.9796C21.1598 21.6042 21.1644 21.2171 21.1342 20.8066ZM13.9409 31.5391C13.9214 31.1464 13.8406 30.7593 13.7015 30.392C15.3922 27.4942 17.3861 24.7879 19.6491 22.3197C19.7188 22.6599 19.842 22.9625 20.0604 23.0329C17.7061 25.6237 15.6529 28.4776 13.9409 31.5391ZM8.64403 41.1363L8.06298 40.3387C9.05223 37.0407 10.3893 33.8594 12.0513 30.8494C12.1838 31.1661 12.3163 31.4688 12.4418 31.7737C10.8446 34.747 9.57122 37.8861 8.64403 41.1363ZM12.6416 32.2312C12.7927 32.5362 12.981 32.7942 13.1994 32.8411C11.6032 35.8989 10.3557 39.1295 9.48074 42.4711C9.33199 42.1661 9.13211 41.8612 8.9299 41.5703C9.82771 38.3309 11.0731 35.2001 12.644 32.2335M6.81721 53.2881C6.61268 53.1239 6.39887 52.9597 6.21293 52.7954L6.05488 52.6664C6.15947 49.1382 6.63594 45.7178 7.46799 42.4265L8.08623 43.2241C7.30002 46.5219 6.87446 49.8967 6.81721 53.2881ZM7.98861 54.3672C7.75162 54.0867 7.48769 53.8305 7.2007 53.6024C7.23789 50.1586 7.65624 46.8298 8.39998 43.6089C8.61613 43.8669 8.86483 44.1015 9.09027 44.1132C8.35434 47.3808 7.98016 50.7207 7.97466 54.0716C7.97466 54.1654 7.98164 54.271 7.98861 54.3648M8.29075 65.5431C7.97001 65.4141 7.65391 65.2851 7.36804 65.156L7.35875 65.1443C6.55343 61.7735 6.1139 58.3243 6.04792 54.8575C6.32217 55.0686 6.59874 55.2798 6.86602 55.4909C6.96829 58.9464 7.48426 62.3105 8.29075 65.5431ZM7.27741 55.7841C7.55631 55.9718 7.85844 56.1219 8.07692 56.0656C8.22799 59.6385 8.83461 63.094 9.75034 66.4111C9.47376 66.153 9.12747 65.9419 8.75792 65.766C7.90645 62.5021 7.41001 59.1543 7.27741 55.7818M12.8299 76.9888C12.4882 76.9419 12.1559 76.909 11.8444 76.8481C10.1994 73.8067 8.88778 70.5934 7.93283 67.265C8.24892 67.394 8.56732 67.5231 8.88109 67.6638C9.85725 70.9457 11.2053 74.0588 12.8299 76.9888ZM9.35058 67.8398C9.67597 67.9453 9.98741 67.9805 10.164 67.828C11.2124 71.1882 12.6403 74.4155 14.4196 77.4463C14.0943 77.2586 13.7224 77.1554 13.3319 77.085C11.6787 74.1578 10.3439 71.0565 9.35058 67.8398ZM20.1069 86.8557C19.7653 86.9026 19.4329 86.9495 19.1192 86.973C16.7643 84.464 14.6838 81.7066 12.9136 78.7482C13.2552 78.7952 13.5922 78.8303 13.9246 78.8773C15.699 81.7506 17.7715 84.4252 20.1069 86.8557ZM14.422 78.9242C14.7659 78.9476 15.0751 78.889 15.1936 78.6779C17.0715 81.6541 19.2781 84.4055 21.771 86.8792C21.3918 86.7964 21.0023 86.7727 20.6159 86.8088C18.2917 84.4066 16.2 81.7839 14.422 78.9242ZM29.6314 94.4846C29.3283 94.6205 29.0206 94.7457 28.7088 94.8599C25.7958 93.0497 23.0841 90.9286 20.6206 88.533L21.62 88.3923C24.0648 90.7089 26.751 92.7516 29.6314 94.4846ZM22.1127 88.3102C22.4474 88.2398 22.7472 88.1108 22.8193 87.8879C25.3833 90.2703 28.2112 92.3461 31.2468 94.0741C30.8571 94.0899 30.4726 94.1692 30.1079 94.3087C27.2361 92.6064 24.5554 90.5952 22.1127 88.3102ZM40.7573 99.4181C40.4901 99.6175 40.2228 99.8169 39.9648 100.005C36.6952 99.0091 33.5428 97.6569 30.5634 95.9719L31.4792 95.5848C34.4251 97.1983 37.5361 98.4835 40.7573 99.4181ZM31.9277 95.3761C32.2299 95.2353 32.4925 95.0476 32.5367 94.8248C35.5653 96.4348 38.7653 97.6925 42.0752 98.5735C41.773 98.726 41.4755 98.9254 41.1803 99.1248C37.9704 98.2182 34.8679 96.9612 31.9277 95.3761ZM52.7943 101.257C52.6316 101.468 52.4666 101.691 52.3086 101.867L52.1784 102.031C48.7555 101.934 45.3538 101.454 42.0356 100.6C42.3029 100.389 42.5656 100.178 42.8259 99.9787C46.0286 100.765 49.3592 101.199 52.7943 101.257ZM43.2094 99.662C43.4604 99.4415 43.6881 99.1928 43.7067 98.9723C46.8816 99.6878 50.175 100.098 53.5706 100.098C53.6682 100.098 53.7635 100.084 53.8611 100.084C53.5962 100.307 53.3405 100.577 53.1034 100.87C49.7716 100.835 46.4537 100.428 43.2094 99.662ZM55.5508 100.002C59.006 99.8444 62.4322 99.2904 65.7633 98.3507C65.5117 98.6429 65.3042 98.9709 65.1474 99.3242C61.9632 100.155 58.6629 100.685 55.258 100.812C55.4462 100.53 55.5996 100.225 55.5508 100.002ZM67.2159 97.9167C70.5379 96.8543 73.727 95.4074 76.7195 93.6049C76.543 93.959 76.423 94.339 76.3639 94.7309C73.4619 96.4055 70.3863 97.7531 67.1927 98.7495C67.3042 98.421 67.3437 98.1043 67.2159 97.9167ZM78.1396 94.1445C80.9925 92.3349 83.6448 90.2216 86.0511 87.841C86.0953 88.1929 86.1418 88.533 86.172 88.8615C83.6835 91.2496 80.9495 93.3628 78.0164 95.1649C78.0582 94.8248 78.0954 94.4729 78.1396 94.1445ZM86.0047 87.3249C83.6331 89.708 81.0132 91.8254 78.1907 93.6401C78.2093 93.2882 78.1628 92.9832 77.9816 92.8425C80.9222 90.9262 83.6372 88.6784 86.0744 86.1425C85.9768 86.5179 85.9768 86.9167 86.0047 87.3249ZM93.1934 76.6275C93.205 77.0146 93.3026 77.4017 93.4374 77.777C91.7407 80.6628 89.7471 83.3599 87.4898 85.8235C87.4201 85.474 87.2923 85.1807 87.0715 85.1104C89.4217 82.5242 91.4753 79.6786 93.1934 76.6275ZM53.5706 99.6996C28.646 99.6996 8.36744 79.2292 8.36744 54.0716C8.36744 28.9164 28.646 8.446 53.5706 8.446C78.4952 8.446 98.7714 28.9164 98.7714 54.074C98.7714 79.2292 78.4952 99.6996 53.5706 99.6996ZM94.4902 75.9003C94.3369 75.5953 94.1416 75.3279 93.9139 75.3045C95.5202 72.2413 96.7712 69.0013 97.6419 65.6487C97.7976 65.9654 97.9998 66.2821 98.209 66.5988C97.3114 69.8277 96.0643 72.947 94.4902 75.9003ZM99.1084 67.8538C98.1183 71.1477 96.773 74.3219 95.0969 77.3196C94.9621 77.0029 94.8273 76.6862 94.6971 76.3695C96.3018 73.4025 97.5793 70.2668 98.5065 67.0187L99.1108 67.8515M99.048 64.9097C99.8282 61.6147 100.255 58.2446 100.322 54.8575C100.528 55.0217 100.74 55.1859 100.926 55.3501L101.084 55.4792C100.972 58.9262 100.494 62.3512 99.6593 65.6956C99.4547 65.4258 99.2479 65.1678 99.048 64.9097ZM99.1526 53.7807C99.378 54.0482 99.6453 54.3062 99.9382 54.5408C99.8955 57.9027 99.4934 61.2502 98.7389 64.525C98.525 64.2787 98.281 64.0558 98.0579 64.0323C98.7621 60.8208 99.1665 57.4943 99.1665 54.0716C99.1665 53.966 99.1596 53.8722 99.1526 53.7807ZM102.316 54.0716C102.316 54.1537 102.311 54.2241 102.309 54.3062L102.262 54.2593C102.017 54.0353 101.763 53.8202 101.502 53.6142C101.461 50.0983 101.037 46.5977 100.24 43.1749C100.529 43.257 100.84 43.3156 101.093 43.2804C101.87 46.7618 102.316 50.358 102.316 54.0716ZM102.836 55.3736C102.866 55.1509 102.812 54.9251 102.685 54.7402C102.695 54.5173 102.709 54.2945 102.709 54.0716C102.709 50.2994 102.244 46.6445 101.444 43.1045C101.549 42.9755 101.579 42.7526 101.486 42.4242C101.427 42.2051 101.304 42.009 101.133 41.8611C100.17 38.0708 98.7661 34.4091 96.9493 30.9527C96.9957 30.8025 96.9818 30.5914 96.8702 30.3099C96.7703 30.0636 96.5611 29.9345 96.3357 29.829C94.4388 26.4455 92.1581 23.2965 89.5397 20.4453C89.5583 20.2811 89.4933 20.07 89.3004 19.8119C89.1423 19.6008 88.9029 19.5187 88.6496 19.4835C85.9541 16.7147 82.948 14.2726 79.6921 12.2065C79.6689 12.0306 79.5574 11.8429 79.297 11.6435C79.0855 11.4793 78.8252 11.4699 78.5672 11.5027C75.2527 9.51022 71.7193 7.9144 68.0387 6.74756C67.955 6.60681 67.8016 6.47779 67.5436 6.37222C67.3305 6.29376 67.0961 6.29794 66.8859 6.38395C63.1277 5.30349 59.2538 4.68594 55.3486 4.54475C55.208 4.43289 55.0387 4.36373 54.8605 4.34535C54.6399 4.31674 54.4165 4.37101 54.233 4.49784C54.0145 4.48611 53.7914 4.47438 53.5683 4.47438C49.831 4.47438 46.2076 4.94356 42.705 5.75055C42.5725 5.64499 42.361 5.6098 42.0356 5.70363C41.8168 5.76629 41.6211 5.89278 41.4732 6.06725C37.7204 7.03714 34.0949 8.45302 30.6727 10.2852C30.517 10.2383 30.3078 10.25 30.0312 10.3673C29.7895 10.4611 29.6547 10.6723 29.5571 10.9069C26.2047 12.8193 23.0847 15.1197 20.2603 17.7616C20.0907 17.7499 19.8815 17.8085 19.6258 18.0079C19.4166 18.1721 19.3423 18.4067 19.3051 18.6648C16.5532 21.3579 14.164 24.417 12.0954 27.7083C11.9235 27.72 11.7375 27.8373 11.5353 28.1071C11.368 28.3182 11.3633 28.5763 11.3959 28.846C9.41607 32.1886 7.83472 35.7557 6.68473 39.473C6.51071 39.5928 6.37888 39.7653 6.30822 39.9657C6.21526 40.1862 6.25011 40.4114 6.32448 40.6319C5.2492 44.425 4.63652 48.3364 4.5 52.2793C4.39069 52.4222 4.32235 52.5926 4.30245 52.772C4.26759 53.0066 4.3373 53.2177 4.45583 53.4054C4.44421 53.6259 4.4326 53.8511 4.4326 54.0716C4.4326 57.8438 4.89744 61.5011 5.69231 65.0387C5.59005 65.1678 5.56215 65.3789 5.65279 65.7073C5.71452 65.9287 5.83699 66.1279 6.00607 66.2821C6.97091 70.0716 8.37512 73.733 10.1896 77.1906C10.1431 77.343 10.1571 77.5518 10.271 77.8333C10.3686 78.0679 10.5778 78.2087 10.8055 78.3143C12.7016 81.6947 14.9815 84.8407 17.5991 87.6885C17.5805 87.8644 17.6456 88.0756 17.8385 88.3336C17.9966 88.5448 18.2383 88.6151 18.4893 88.6621C21.1856 91.4302 24.1925 93.8715 27.449 95.9367C27.47 96.1127 27.5815 96.3003 27.8418 96.4997C28.0557 96.664 28.3136 96.6757 28.5716 96.6405C31.886 98.6341 35.4194 100.231 39.1002 101.398C39.1816 101.539 39.3373 101.665 39.5976 101.773C39.816 101.867 40.0392 101.83 40.2576 101.759C43.9368 102.827 47.802 103.448 51.7903 103.601C51.9018 103.683 52.0459 103.765 52.2807 103.8C52.5006 103.829 52.7231 103.774 52.9059 103.648C53.1267 103.659 53.3475 103.671 53.5706 103.671C57.3125 103.671 60.9476 103.214 64.4524 102.404C64.5849 102.498 64.7918 102.522 65.1032 102.44C65.2853 102.385 65.4504 102.284 65.582 102.146C69.3922 101.171 73.0706 99.7309 76.5359 97.858C76.6846 97.8815 76.8659 97.8698 77.11 97.7759C77.3103 97.6794 77.4689 97.5127 77.5562 97.3067C80.9232 95.3771 84.053 93.0534 86.8809 90.384C87.0505 90.3957 87.2574 90.337 87.513 90.1376C87.7269 89.9734 87.7989 89.7271 87.8361 89.4691C90.5894 86.7481 93.0247 83.7178 95.0945 80.4373C95.2526 80.3904 95.4199 80.2731 95.6059 80.0385C95.7439 79.841 95.7998 79.5968 95.7616 79.3582C97.7742 75.9849 99.3726 72.377 100.522 68.6139C100.66 68.4982 100.767 68.3489 100.833 68.1799C100.911 67.9675 100.908 67.7331 100.824 67.5231C101.867 63.786 102.488 59.8965 102.639 55.8639C102.748 55.7207 102.816 55.5528 102.836 55.3736Z"
     fill="#D9D9D9"
     id="path3" />
  <mask
     id="mask0_85_49"
     style="mask-type:luminance"
     maskUnits="userSpaceOnUse"
     x="25"
     y="2"
     width="58"
     height="89">
    <path
       d="M40.4968 90.6279L25.1729 36.7803L53.4772 2.4361L82.5364 36.7803L66.7109 90.9323L40.4968 90.6279Z"
       fill="white"
       id="path4" />
  </mask>
  <g
     mask="url(#mask0_85_49)"
     id="g15">
    <mask
       id="mask1_85_49"
       style="mask-type:luminance"
       maskUnits="userSpaceOnUse"
       x="24"
       y="21"
       width="56"
       height="76">
      <path
         d="M24.1721 96.6543H79.4454V21.2944H24.1721V96.6543Z"
         fill="white"
         id="path5" />
    </mask>
    <g
       mask="url(#mask1_85_49)"
       id="g14">
      <path
         d="M51.4357 30.6199V25.8962L51.9202 27.7711L51.8825 30.5713C51.8216 30.5713 51.762 30.5833 51.7011 30.5955C51.6134 30.5955 51.5245 30.6077 51.4357 30.6199ZM51.8825 43.89C51.8605 43.8779 51.8399 43.8779 51.818 43.8657C51.7668 43.8535 51.7157 43.8414 51.6633 43.8292C51.5866 43.8048 51.5112 43.7805 51.4357 43.7562V38.1437L51.9202 39.7507V43.1718V43.184V43.1961V43.2083C51.9178 43.4153 51.9019 43.6466 51.8825 43.89ZM51.4357 60.5813V51.9008L51.9202 53.374V56.929C51.9202 58.2803 51.4357 60.5813 51.4357 60.5813Z"
         fill="#B8B8B8"
         id="path6" />
      <path
         d="M60.0332 86.1719C60.0563 86.0136 60.0807 85.8432 60.1062 85.6849C60.6711 85.6727 61.2336 85.6728 61.7985 85.6606C63.5199 85.6363 65.2402 85.5632 66.9604 85.478L66.8436 85.8433C65.1683 85.9528 63.4919 86.0624 61.8118 86.1232C61.2189 86.1354 60.6261 86.1597 60.0332 86.1719ZM60.8001 81.6187C60.8294 81.4726 60.8586 81.3144 60.8903 81.1561H61.8009C63.9777 81.1683 66.1545 81.2048 68.3313 81.2535L68.2241 81.5822C66.0814 81.5822 63.9387 81.5944 61.796 81.6187H60.8001ZM69.5463 77.5038C66.9605 77.3455 64.377 77.1264 61.796 77.0168H61.7692C61.8033 76.8585 61.8374 76.7124 61.8727 76.5663C64.4683 76.7489 67.0566 76.9802 69.6412 77.2115L69.5463 77.5038ZM69.1798 76.2132L66.4199 75.9332V67.3258L69.1798 67.9833V76.2132ZM66.7851 68.6407V75.5315L68.985 75.7262C68.0853 73.9974 67.9003 73.2062 67.9003 72.3905V69.0911L68.985 68.4459L67.725 68.8355L66.7851 68.6407ZM70.8112 73.6079C70.5093 73.5714 70.2073 73.5349 69.9054 73.4862L69.6132 73.4496V73.1452L69.948 73.2061C70.2634 73.2548 70.5787 73.3036 70.8928 73.3644L70.8112 73.6079ZM65.9853 72.9505L65.8574 72.9261C64.8542 72.78 63.8523 72.6704 62.8491 72.5609C62.8856 72.4148 62.9222 72.2808 62.9599 72.1348C63.9485 72.2565 64.9346 72.4026 65.9134 72.5609L65.9853 72.5731V72.9505ZM72.0238 69.8704L69.9237 69.4564L69.6132 69.3834V69.079L69.9858 69.1643L72.0908 69.6755L72.0238 69.8704ZM65.9853 68.6285L65.8854 68.6042C65.2743 68.4824 64.6619 68.3607 64.0471 68.2512C64.0873 68.1051 64.1262 67.9832 64.1652 67.8493C64.7702 67.9711 65.3705 68.105 65.9682 68.2389L65.9853 68.2512V68.6285ZM72.8687 67.2772L65.0052 65.1588L67.1077 64.7083L73.1426 66.425L72.8687 67.2772ZM72.3416 64.4892C72.3294 64.4892 72.3196 64.4771 72.3087 64.4771L70.1757 63.8561C70.0637 63.8196 69.9724 63.6492 69.9724 63.4788C69.9724 63.3205 70.043 63.2109 70.1367 63.2109C70.1489 63.2109 70.1635 63.223 70.1757 63.223L70.2402 63.2353L70.2439 63.2109V52.6556C70.2439 52.6556 69.7837 54.1531 68.5614 56.3445L66.4199 55.4071V59.6194C65.8258 60.3986 65.3035 60.9708 64.8786 61.3847H64.8031V61.3726L64.819 61.3847V49.5511L70.2342 52.3513V51.7548L64.819 48.8938V48.1754L68.2594 50.0381V47.4937L68.9363 46.751L68.9607 46.7754V50.4034L68.968 50.4156L70.2342 51.1094V45.5944C70.2342 45.5944 69.9395 46.0328 69.1798 46.5806V46.4589L66.4199 44.7787V47.9076C65.6018 48.1389 65.0356 48.1633 64.8652 48.1633H64.819V41.796H64.8177V41.7839L65.0624 41.8447L65.0868 41.8691H65.0746L69.9565 45.0101C70.0198 45.1318 70.0783 45.2415 70.1112 45.3023C70.2183 45.4728 70.2743 45.5214 70.2743 45.5214L70.5689 45.3997L70.586 45.4118V63.3448L72.2003 63.8318V53.374L76.448 55.5775V55.0419L72.2003 52.8017V52.1686L74.7752 53.5566L74.7776 53.5322L74.7764 51.4382L75.306 50.6833L75.3072 53.8244L75.3085 53.8487L76.448 54.4574V49.5634C76.448 49.5634 76.2288 49.9286 75.6883 50.4277L73.5468 49.1129V51.7913C72.8042 52.1078 72.3014 52.1443 72.2003 52.1565V46.4467L76.056 48.9303C76.1253 49.052 76.1984 49.1859 76.2471 49.2712C76.3555 49.4416 76.4102 49.4903 76.4102 49.4903L76.7195 49.3685L76.7182 49.3564H76.7207V50.0746L77.9954 50.8782V51.1703L76.7207 50.379V55.4071L76.4151 56.3445V55.8454C76.4151 55.8454 76.0572 57.2089 75.1124 59.2298L73.5468 58.5481V62.1273C73.0611 62.8943 72.6374 63.4666 72.2977 63.8684H72.3087C72.4122 63.9049 72.4962 64.0632 72.4962 64.2336C72.4962 64.3797 72.4292 64.4892 72.3416 64.4892ZM68.9193 63.9779L68.2729 63.7831V57.6837L68.9193 57.0019V63.9779ZM75.0102 60.6786V60.3134L75.1843 60.1429L75.0102 60.6786ZM74.8483 60.2282L73.7903 59.8021V59.0472L75.3255 59.7047L75.2342 59.9847L74.8483 60.2282ZM68.0695 57.3915L66.7231 56.8314V55.9792L68.8865 56.9046L68.0695 57.3915ZM74.6291 51.2069L73.8512 50.7442V49.7094L75.3072 50.586L74.6291 51.2069ZM78.0076 50.4642V50.1721L76.7499 49.3564C76.6404 49.2833 76.5429 49.1251 76.5101 48.9668L76.4176 48.4919L77.9954 49.5268L78.3886 49.7825L78.531 49.8677L78.3874 50.3181L78.0185 50.4642H78.0076ZM77.9954 49.0885L66.8642 41.6377L67.7627 41.2969L78.7794 48.8085V48.8207L78.2486 48.9912L78.0197 49.052V49.0642H77.9954V49.0885ZM78.7891 48.139L67.7335 40.4447L68.3362 40.2133C73.1524 43.6709 78.7295 47.7128 79.0826 47.9685L78.7891 48.139ZM79.0886 47.9685L79.1604 47.9076L79.1994 47.8102C78.8537 47.5546 73.3532 43.5736 68.5577 40.1282L68.8012 40.0429L68.7903 40.0186C73.24 43.2083 78.2327 46.8119 79.2773 47.5789L79.1666 47.9198L79.1203 47.9441L79.0886 47.9685ZM79.3565 47.3354L68.755 39.6777L69.1105 39.5437L77.9954 45.9962V46.0084L79.2834 46.9336L79.4441 47.0554L79.3565 47.3354ZM68.1121 47.165L66.7449 46.3737V45.4483L68.9205 46.751L68.1121 47.165ZM72.3354 46.4832C72.2965 46.4832 72.2515 46.471 72.2052 46.4467L70.6067 45.4118C70.4679 45.3266 70.3461 45.1319 70.306 44.9371L70.1879 44.3892L72.5948 45.9719L72.4852 46.3614C72.4608 46.4466 72.406 46.4832 72.3354 46.4832ZM76.7195 44.0483L76.448 43.8414V38.4238C76.448 38.4238 76.1704 38.9107 75.4424 39.4707L73.5468 37.9245V40.4568C72.9831 40.6272 72.557 40.6517 72.3427 40.6517H72.1954V34.0531L76.7195 37.9854V44.0483ZM75.3072 42.9892L74.7776 42.5873L74.7764 40.5055L75.306 39.8481L75.3072 42.9892ZM74.6291 40.2256L73.8512 39.6168V38.5698L75.3072 39.7507L74.6291 40.2256ZM70.5811 39.4586L70.2439 39.2029V33.14C70.2439 33.14 69.8957 33.6513 68.985 34.187L66.4199 32.093V35.1123C66.0486 35.1732 65.7284 35.1853 65.4739 35.1853C65.0588 35.1853 64.8177 35.1367 64.8165 35.1367V27.6494L70.5811 32.653V39.4586ZM78.7246 38.4115H78.01V38.2289L63.2241 25.1414L63.6356 24.8857L78.7246 38.3994V38.4115ZM68.9546 38.2289L68.2558 37.7175V35.1853L68.929 34.5888L68.9546 34.6131V38.2289ZM79.0351 37.8515H79.0034L78.7356 37.8393L64.1238 24.6058L64.3746 24.4474L78.8403 37.6689L79.0351 37.8515ZM68.0038 34.9662L66.7449 33.9922V32.8113L68.9145 34.5766L68.0038 34.9662ZM78.5566 33.7731L78.0124 33.7608C71.9483 27.8441 68.2607 24.2405 66.0182 22.0612L66.387 21.8299L78.5566 33.7608V33.7731ZM79.1666 33.3105L78.5652 33.2982V33.3105L66.7047 21.623L67.2332 21.2943L75.2999 29.4147L75.6798 29.8041L79.1666 33.3105Z"
         fill="#A4A4A4"
         id="path9" />
      <path
         d="M51.4357 74.034V65.3535L51.9202 66.5588V70.3817C51.9202 71.7452 51.4357 74.034 51.4357 74.034ZM57.2052 90.8225L56.6305 90.8104V81.2656L57.2052 80.7542V90.8225Z"
         fill="#B8B8B8"
         id="path10" />
      <path
         d="M47.0869 86.0259L45.5663 85.9528L39.8954 85.624L39.7153 85.0762L45.5956 85.3563C46.0655 85.3928 46.5342 85.4049 47.0029 85.4293C47.0322 85.6241 47.0601 85.8311 47.0869 86.0259ZM38.6391 81.7526L38.4638 81.217L45.5821 81.1074H46.2737C46.3126 81.3021 46.3516 81.497 46.3881 81.7039H45.5894L38.6391 81.7526ZM37.4314 78.0272L37.2657 77.5159L45.3484 76.8828C45.3934 77.0776 45.4373 77.2724 45.4823 77.4671L37.4314 78.0272ZM37.9792 76.2132V67.8737L40.7197 67.2163V75.9332L37.9792 76.2132ZM38.1776 68.5068L39.4548 69.1155V72.4756C39.2454 74.5574 38.1776 75.7141 38.1776 75.7141L40.3532 75.4827V68.6529L39.5996 68.8355L38.1776 68.5068ZM36.2724 74.4601L36.1129 73.9609L37.3474 73.7906V74.314L36.2724 74.4601ZM41.1506 73.8027V73.2427L44.3537 72.7922C44.4024 72.9748 44.4499 73.1697 44.4986 73.3644L41.1506 73.8027ZM35.1608 71.0269L35.0038 70.54L37.3474 70.053V70.5886L35.1608 71.0269ZM41.1506 69.846V69.2738L43.2739 68.8355C43.325 69.0181 43.3798 69.2007 43.4333 69.3955L41.1506 69.846ZM33.969 67.3623L33.712 66.5589L40.0611 64.7448L42.127 65.1588H42.1283L33.969 67.3623ZM34.7079 64.4892C34.619 64.4892 34.5533 64.3797 34.5533 64.2336C34.5533 64.0632 34.6361 63.9049 34.7408 63.8684L34.8516 63.8318C34.3646 63.2596 33.7072 62.3465 32.9463 60.9708C31.3197 58.0367 30.7463 55.821 30.7463 55.821V56.3688L30.4347 55.2731V49.3442H30.4493L30.442 49.3685L30.7512 49.4903C30.7512 49.4903 30.806 49.4416 30.9143 49.2712C30.9655 49.1859 31.0495 49.0398 31.1213 48.9059L34.9283 46.4589C34.8918 46.4711 34.8552 46.4832 34.8224 46.4832C34.7542 46.4832 34.6994 46.4345 34.6763 46.3614L34.5679 45.9719L36.9736 44.3892L36.8555 44.9371C36.8178 45.1197 36.707 45.3022 36.5791 45.3875L36.5779 45.3997L36.8871 45.5214C36.8871 45.5214 36.9432 45.4728 37.0515 45.3023C37.0868 45.2415 37.1501 45.1197 37.2207 44.9736L40.9534 42.5752L42.0674 41.8691L42.2792 41.8204L42.2816 43.5004V48.1755H42.261C42.0893 48.1755 41.5183 48.1512 40.705 47.9198V44.791L37.9439 46.471C37.9439 46.471 37.1708 46.0084 36.8871 45.6067V51.1095L38.1716 50.4156V46.7754L38.1971 46.751L38.8728 47.4937V50.0381L42.2816 48.1998V48.918L36.8871 51.7669V52.3635L42.2816 49.5755V61.3969C41.8458 60.9708 41.3089 60.3742 40.699 59.5707V55.4801L38.6208 56.3811C37.3802 54.1775 36.9139 52.6556 36.9139 52.6556V63.2109L36.864 63.223H36.8713C36.8859 63.223 36.8981 63.2109 36.9115 63.2109C37.0053 63.2109 37.0759 63.3205 37.0759 63.4788C37.0759 63.6492 36.9833 63.8196 36.8713 63.8561L34.7408 64.4771C34.7298 64.4771 34.7189 64.4892 34.7079 64.4892ZM36.5694 45.3997L36.5548 45.4118L34.9575 46.4467H34.955V63.8075L36.5694 63.3083V45.3997ZM38.1996 64.051V57.0749L38.8472 57.7445V63.844L38.1996 64.051ZM42.2147 61.4091L42.295 61.3847V61.3969L42.2147 61.4091ZM39.0494 57.4524L38.2336 56.9654L40.3959 56.0401V56.8923L39.0494 57.4524ZM29.1442 50.7442L29.0103 50.2695L29.1442 50.1721V50.7442ZM29.0383 50.2086C29.0225 50.2086 29.0066 50.2085 28.992 50.1964L28.8569 49.7216L30.7439 48.4919L30.6502 48.9668C30.6185 49.1251 30.5211 49.2834 30.4116 49.3564L29.1381 50.1842C29.1028 50.1964 29.0687 50.2086 29.0383 50.2086ZM28.7424 49.332L28.5586 48.6746L39.3378 41.3213L40.2169 41.6621L28.7424 49.332ZM42.2816 48.1998V48.1755H42.2841V48.1876L42.2816 48.1998ZM28.3943 48.1025L28.3103 47.8102C33.1143 44.3649 36.6157 41.8569 38.8217 40.2742L39.3488 40.4812L28.3943 48.1025ZM28.253 47.6032L28.1848 47.372C32.0271 44.6206 35.7878 41.9177 38.342 40.0916L38.6013 40.1891C36.3929 41.7717 32.939 44.2553 28.253 47.6032ZM39.0214 47.165L38.2117 46.751L40.3873 45.4483V46.3737L39.0214 47.165ZM28.1093 47.1041L28.0132 46.7633L37.9658 39.5681L38.3444 39.7021L28.1093 47.1041ZM27.8001 46.0084L26.4902 41.4186L29.1649 39.0934V44.998L27.8001 46.0084ZM30.4505 44.024V37.9733L34.9599 34.0652V40.6517H34.8017C34.5691 40.6517 34.1016 40.6273 33.4832 40.4203V36.1836L31.6765 37.7298V39.4463C30.9716 38.8985 30.6989 38.4238 30.6989 38.4238V43.8414L30.4505 44.024ZM31.9078 42.9404V37.961L32.5165 38.3506V42.5022L31.9078 42.9404ZM26.3002 40.749L26.1992 40.3959L43.4747 24.9222L43.8863 25.1657L26.3002 40.749ZM26.086 39.9942L26.0154 39.7386L42.7358 24.484L42.989 24.63L26.086 39.9942ZM36.5706 39.4463V32.653L42.323 27.6494V35.1367C42.2816 35.1488 42.0491 35.1853 41.6717 35.1853C41.4197 35.1853 41.1032 35.1732 40.7367 35.1123V32.093L38.1679 34.187C37.2524 33.6513 36.9042 33.14 36.9042 33.14V39.2029L36.5706 39.4463ZM38.2008 38.2289V34.6131L38.2263 34.5888L38.8996 35.1853V37.7176L38.2008 38.2289ZM32.6431 38.1315L31.9322 37.9124L33.2336 36.8288V37.6202L32.6431 38.1315ZM25.3555 37.4254L25.2447 37.0358C30.8401 31.5086 37.0344 25.3971 40.6539 21.8178L41.0654 22.0734C37.4448 25.6161 31.0885 31.8252 25.3555 37.4254ZM25.3616 36.561L28.0911 33.2496L39.8954 21.3429L40.3934 21.6473L25.3616 36.561ZM39.0481 35.0758L38.241 34.5766L40.4104 32.8113V33.9922L39.0481 35.0758Z"
         fill="#A4A4A4"
         id="path13" />
      <path
         d="M55.7832 30.6442L55.2999 30.5713V27.7589L55.7832 25.8841V30.6442ZM55.3303 43.8657C55.3193 43.7074 55.3096 43.5491 55.3047 43.4031C55.3023 43.3178 55.2999 43.2449 55.2999 43.1718V39.7386L55.7832 38.1315V43.7318C55.6346 43.7805 55.4837 43.8291 55.3303 43.8657ZM50.5092 90.7373H49.9345V80.7543L50.5092 81.2656V90.7373ZM51.6012 83.4935H55.5998V82.3265H51.6012V83.4935ZM55.7832 74.034H55.782C55.7467 73.8636 55.2999 71.7939 55.2999 70.3817V66.5468L55.7832 65.3414V74.034ZM55.7832 60.5813C55.7832 60.5813 55.782 60.5812 55.782 60.569C55.7467 60.4108 55.2999 58.3412 55.2999 56.9289V53.3617L55.7832 51.8887V60.5813Z"
         fill="#B8B8B8"
         id="path14" />
    </g>
  </g>
  <path
     d="M47.3242 90.1049C45.1174 89.8427 42.9982 89.4682 41 89L41.1545 89.7678C43.1064 90.2172 45.1741 90.573 47.3242 90.8315V90.1049ZM59.8543 90.3109L59.8388 91C62.2748 90.8315 64.6232 90.6854 66.8532 90.2509L67 89.5019C64.734 89.9363 62.3495 90.1386 59.8543 90.3109Z"
     fill="#A8A8A8"
     id="path15" />
  <mask
     id="mask2_85_49"
     style="mask-type:luminance"
     maskUnits="userSpaceOnUse"
     x="25"
     y="2"
     width="58"
     height="89">
    <path
       d="M40.4968 90.6279L25.1729 36.7803L53.4772 2.4361L82.5364 36.7803L66.7109 90.9323L40.4968 90.6279Z"
       fill="white"
       id="path16" />
  </mask>
  <g
     mask="url(#mask2_85_49)"
     id="g20">
    <mask
       id="mask3_85_49"
       maskUnits="userSpaceOnUse"
       x="16"
       y="3"
       width="79"
       height="94"
       style="mask-type:luminance">
      <path
         d="M94.342 50.5373C94.342 76.7732 75.312 96.6785 53.8935 96.6785C32.4762 96.6785 16.7809 76.7732 16.7809 50.5373C16.7809 24.3013 34.1441 3.04467 55.5626 3.04467C76.9787 3.04467 94.342 24.3013 94.342 50.5373Z"
         fill="white"
         id="path17" />
    </mask>
    <g
       mask="url(#mask3_85_49)"
       id="g19">
      <path
         d="M 59.4851,90.8468 58.6196,90.8347 V 79.6342 l -1.4147,1.1199 h -7.2706 l -1.4147,-1.1199 0.0463,11.0787 h -0.8973 v -0.4627 c -0.0304,0 -0.0596,-0.0121 -0.0889,-0.0121 -0.0694,-0.7183 -0.1497,-1.4732 -0.241,-2.2402 -0.0913,-0.8644 -0.1753,-1.5826 -0.2301,-1.9721 H 47.0867 C 47.0599,85.831 47.0319,85.624 47.0027,85.4292 h 0.0182 C 46.8347,84.1874 46.6241,82.9456 46.3891,81.7038 H 46.3879 C 46.3513,81.4969 46.3124,81.302 46.2734,81.1072 h 0.0061 C 46.0469,79.8898 45.7901,78.6723 45.5174,77.467 h -0.0353 c -0.0451,-0.1948 -0.0889,-0.3895 -0.134,-0.5843 h 0.0329 c -0.2703,-1.1809 -0.5575,-2.3619 -0.8607,-3.5306 l -0.0219,0.0122 c -0.0487,-0.1948 -0.0962,-0.3896 -0.1449,-0.5722 l 0.0183,-0.0122 C 44.0735,71.6476 43.7606,70.5154 43.438,69.3954 h -0.0049 c -0.0536,-0.1948 -0.1084,-0.3774 -0.1595,-0.56 h 0.0037 C 42.9169,67.5936 42.5432,66.364 42.1609,65.1587 l -0.0049,-0.0121 -0.028,0.0121 h -0.0012 l -2.066,-0.414 4.6823,-1.3513 c 2.9036,-0.8279 5.8936,-1.2418 8.8861,-1.2418 2.9901,0 5.9813,0.4139 8.8849,1.2418 l 4.5934,1.3148 -2.1025,0.4505 -0.0267,-0.0121 -0.0025,0.0121 c -0.2812,0.8887 -0.5552,1.7896 -0.8254,2.6905 h 0.0146 c -0.039,0.1339 -0.0779,0.2558 -0.1181,0.4019 -0.0048,0 -0.0097,-10e-5 -0.0146,-0.0123 -0.3798,1.2905 -0.7487,2.5932 -1.0981,3.8958 h 0.0255 c -0.0377,0.1461 -0.0743,0.2801 -0.1108,0.4261 h -0.0255 c -0.3519,1.3271 -0.6818,2.6541 -0.9935,3.9932 0.0134,0 0.028,1e-4 0.0426,0.0123 -0.0353,0.1461 -0.0694,0.2922 -0.1035,0.4505 h -0.045 c -0.3153,1.3757 -0.6111,2.7514 -0.8765,4.1393 h 0.0426 c -0.0317,0.1583 -0.0609,0.3165 -0.0901,0.4626 h -0.039 c -0.255,1.3507 -0.4827,2.7063 -0.683,4.0662 h 0.028 c -0.0255,0.1583 -0.0499,0.3287 -0.073,0.487 h -0.028 c -0.0487,0.3408 -0.1133,0.901 -0.1839,1.5584 -0.1461,1.1444 -0.2544,2.1792 -0.336,3.1166 z M 53.6682,64.623 c -1.4585,0 -2.4167,0.2435 -2.6407,0.3043 v 9.8492 h 5.1632 V 64.9273 C 55.985,64.8665 55.117,64.623 53.6682,64.623 Z"
         fill="#dadada"
         id="path18"
         style="display:inline" />
      <path
         d="m 47.6686,90.713 h -0.0463 c -0.0134,-0.1583 -0.028,-0.3166 -0.0426,-0.4749 0.0292,0 0.0584,0.0121 0.0889,0.0121 z m 7.9316,0.0851 -3.9993,-0.0486 v -6.5012 h 3.9993 z m 11.2431,-4.9549 0.1169,-0.3652 h 0.0086 l -0.117,0.3529 c -0.0036,0 -0.006,1e-4 -0.0085,0.0123 z m 1.3806,-4.2611 0.1072,-0.3287 h 0.0097 l -0.1071,0.3287 z m 1.3331,-4.0784 h -0.0109 l 0.0949,-0.2922 c 0.0037,0.0121 0.0073,0.0121 0.0098,0.0121 z m 1.265,-3.8958 h -0.011 l 0.0816,-0.2435 h 0.0109 z m 1.2125,-3.7255 -0.011,-0.0121 0.067,-0.1949 h 0.0122 z m 0.8461,-2.6053 h -0.0121 l 0.2739,-0.8522 0.0122,0.0122 z M 55.1559,66.1206 h -3.0923 l -0.6283,-0.8157 c 0,0 0.8584,-0.1949 2.2718,-0.1949 1.4147,0 2.0757,0.1949 2.0757,0.1949 z M 74.086,63.5639 75.01,60.7151 v -0.0365 l 0.1741,-0.5358 0.0207,-0.0243 0.0462,-0.146 -0.017,0.0121 0.0913,-0.28 h 0.0122 l 1.0774,-3.3115 v -0.0487 l 0.3056,-0.9373 v 0.0365 l 1.288,-3.9567 v -0.3044 l -0.0133,-0.0123 v -0.2921 l 0.0133,0.0122 -0.0012,-0.4261 h 0.011 l -0.0061,1.0104 z m -8.9507,-1.4 c -0.0171,0 -0.0329,-10e-5 -0.0499,-0.0123 l -2.3509,-0.6939 -0.6781,0.1705 v 0.0121 L 60.9265,61.275 c -0.1521,-0.0487 -0.2751,-0.2433 -0.2751,-0.4503 0,-0.1583 0.0852,-0.2679 0.1985,-0.2679 V 40.2741 l -0.0012,0.0123 c -0.0341,-0.0609 -0.106,-0.1218 -0.1437,-0.2435 -0.1218,-0.3896 -0.207,-0.9984 -0.207,-0.9984 l 0.263,-0.1461 0.9094,0.5966 0.5527,-0.2922 3.1277,2.021 -0.1388,0.487 c -0.0244,0.0852 -0.067,0.1339 -0.1255,0.1582 l -0.0243,-0.0243 -0.2447,-0.0609 v 0.0121 l -2.0818,-1.3513 v 20.1975 h -0.0012 v 0.0973 l 2.0684,0.6331 v 0.0122 h 0.0755 c -0.0037,0.0121 -0.0061,0.0121 -0.0097,0.0121 l 0.2167,0.0731 c 0.1327,0.0365 0.2398,0.2191 0.2398,0.4139 0,0.1582 -0.0816,0.2801 -0.1899,0.2801 z M 61.1555,40.1281 v 20.5017 l 0.9009,0.3044 v -1.5948 h 0.0012 V 40.7002 Z M 41.9977,62.1639 c -0.1096,0 -0.1911,-0.1219 -0.1911,-0.2801 0,-0.1948 0.1071,-0.3774 0.241,-0.4139 l 0.1668,-0.0609 0.0804,-0.0122 v -0.0121 l 2.1025,-0.6453 V 40.4567 l -2.1074,1.3636 h -0.0085 v 1.68 l -0.0025,-1.68 -0.2118,0.0487 -1.114,0.7061 1.1055,-0.7061 c -0.0597,-0.0243 -0.1059,-0.073 -0.1291,-0.1582 l -0.1387,-0.487 3.0996,-2.0331 0.5795,0.3043 0.9106,-0.5966 0.2606,0.1461 c 0,0 -0.0853,0.6088 -0.207,0.9984 -0.0366,0.1217 -0.1071,0.1826 -0.1412,0.2435 v 20.2704 c 0.1083,0.0122 0.1875,0.1096 0.1875,0.2679 0,0.207 -0.1242,0.4016 -0.2764,0.4503 l -1.1286,0.3653 v -0.0121 l -0.6781,-0.1705 -2.3497,0.6939 c -0.017,0.0122 -0.0341,0.0123 -0.0499,0.0123 z m 3.9896,-22.0358 -0.9119,0.5721 v 20.234 l 0.9119,-0.3044 z m 10.2034,20.4043 v -9.0578 c -0.2058,-0.0609 -1.0738,-0.3044 -2.5225,-0.3044 -1.4585,0 -2.4167,0.2435 -2.6407,0.3044 v 9.0335 c -0.3458,-0.1948 -0.5296,-0.353 -0.5296,-0.353 -2.4129,-1.607 -1.8432,-6.9274 -2.1402,-9.2892 -0.1899,-1.5218 -0.5869,-2.7879 -0.9448,-3.701 4.0271,-1.3758 8.399,-1.3629 12.4179,0.0365 -0.3542,0.9009 -0.7426,2.167 -0.9313,3.6645 -0.297,2.3618 0.2739,7.6822 -2.1403,9.2892 0,0 -0.1972,0.1704 -0.5685,0.3773 z m -1.0348,-7.609 h -3.0923 l -0.6283,-1.0713 c 0,0 0.8584,-0.1949 2.2718,-0.1949 1.4147,0 2.0757,0.1949 2.0757,0.1949 z m 23.2312,-2.6054 0.1437,-0.4503 0.0098,0.0121 -0.151,0.4382 z m 0.0013,-0.5356 -0.3932,-0.2557 h 0.0121 v -0.4382 h -0.0121 v -0.0244 h 0.0243 l -0.0073,0.4626 z m -0.14,-0.7913 0.5308,-0.1705 v -0.0121 l 0.0146,0.0121 0.0012,-0.6817 h -0.0061 l 0.2935,-0.1705 -0.2801,0.1705 -0.0061,0.6817 z M 42.2838,48.1875 v -0.0121 h 0.0341 z m 36.7997,-0.2191 h -0.0011 0.0023 z m 0.0012,0 h 0.0037 L 79.12,47.944 Z m 0.0817,-0.0486 0.1107,-0.341 0.0792,-0.2435 0.0876,-0.28 0.0098,0.0123 -0.2849,0.8522 z m 0.1168,-0.9862 -1.288,-0.9252 v -0.0123 l 0.0146,0.0123 V 45.9961 Z M 60.0585,46.6414 c -2.1001,-0.7304 -4.2939,-1.0957 -6.4902,-1.0957 -2.1722,-10e-5 -4.3296,0.3577 -6.3855,1.0591 l -0.3202,-0.6696 c 2.1476,-0.8035 4.4133,-1.193 6.679,-1.193 2.3192,0 4.6384,0.414 6.8322,1.2297 l -0.0779,0.1459 c -0.0693,0.1461 -0.1522,0.3289 -0.2374,0.5236 z m -8.1739,-2.7515 h -0.0025 c 0.0195,-0.2434 0.0354,-0.4747 0.0378,-0.6817 -0.0024,0.207 -0.0171,0.4383 -0.0353,0.6817 z m -0.8571,-0.2678 c -2.2328,-0.8888 -3.8958,-3.1775 -4.2951,-5.6245 h 0.0048 C 48.9043,36.9993 51.2369,36.5 53.5696,36.5 c 2.3289,0 4.6591,0.4993 6.8237,1.4976 l -0.006,0.0242 c -0.3799,2.4349 -1.9882,4.6507 -4.1966,5.5638 v -5.8681 c -0.2058,-0.0609 -1.0738,-0.3044 -2.5225,-0.3044 -1.4585,0 -2.4167,0.2435 -2.6407,0.3044 z m 4.2769,-0.2191 c -0.0036,-0.0853 -0.0049,-0.1582 -0.0049,-0.2313 0,0.0731 0.0025,0.146 0.0049,0.2313 z m -15.0878,-1.741 -0.879,-0.3408 5.392,-3.6767 c 2.6443,-1.814 5.7428,-2.7149 8.8424,-2.7149 3.0972,0 6.1956,0.9009 8.8399,2.7149 l 5.3506,3.6523 -0.8985,0.3409 -4.2659,-2.8488 c -2.7344,-1.8383 -5.8851,-2.7515 -9.0358,-2.7515 -3.1471,0 -6.2955,0.9131 -9.0286,2.7393 z m -0.868,-1.1809 -0.5272,-0.207 c 1.4305,-1.0226 2.3144,-1.6678 2.6577,-1.9113 0.3092,-0.2313 0.6185,-0.4505 0.9253,-0.6818 1.2296,-0.9131 2.5006,-1.8626 3.8714,-2.6053 1.7531,-0.9618 3.6292,-1.5705 5.5747,-1.7897 0.588,-0.073 1.1821,-0.1096 1.7665,-0.1096 0.1607,0 0.3214,10e-5 0.4809,0.0123 2.6711,0.0852 5.2448,0.8399 7.2487,2.1183 0.2471,0.1582 0.6343,0.4139 1.1846,0.7913 1.2929,0.9009 3.4587,2.4349 5.8048,4.1149 l -0.6027,0.2314 -4.9015,-3.4088 c -2.7684,-1.8993 -6.0141,-2.8489 -9.2586,-2.8489 -3.2469,0 -6.4939,0.9496 -9.2648,2.8489 z M 38.601,40.189 38.3417,40.0915 c 1.5706,-1.1322 2.6833,-1.9357 3.079,-2.2157 1.5717,-1.1565 3.0947,-2.3619 4.8076,-3.2993 1.7385,-0.9496 3.639,-1.5705 5.61,-1.8018 0.5881,-0.0731 1.1785,-0.1096 1.769,-0.1096 0.1644,0 0.3299,0.0122 0.4942,0.0122 2.5092,0.0852 5.1718,0.7792 7.2975,2.1305 0.2605,0.1705 0.6683,0.4383 1.1882,0.8035 1.3574,0.9375 3.6937,2.6054 6.2029,4.4072 l 0.0109,0.0244 -0.2435,0.0852 c -2.3874,-1.7044 -4.5995,-3.275 -5.9143,-4.188 -0.5515,-0.3896 -0.9411,-0.6452 -1.1907,-0.8035 -2.0319,-1.2905 -4.6434,-2.0576 -7.3485,-2.1428 -0.1644,-0.0122 -0.3275,-0.0121 -0.4931,-0.0121 -0.5904,0 -1.1894,0.0365 -1.7835,0.0974 -1.9711,0.2313 -3.8715,0.84 -5.6465,1.814 -1.3818,0.767 -2.6601,1.7044 -3.8958,2.6296 -0.3068,0.2313 -0.6124,0.4504 -0.9217,0.6818 -0.3494,0.2556 -1.2722,0.9131 -2.7624,1.9845 z m -0.2568,-0.487 -0.3787,-0.134 6.4622,-4.6628 c 2.7344,-1.9601 5.9387,-2.9462 9.1431,-2.9462 3.203,0 6.4062,0.9861 9.1405,2.9462 l 6.3989,4.6384 -0.3554,0.134 -6.237,-4.5045 c -2.6058,-1.8767 -5.7359,-2.8861 -8.947,-2.8854 -3.1374,0 -6.2735,0.9618 -8.9495,2.8854 z M 55.1559,39.3124 H 52.0636 L 51.4353,38.095 c 0,0 0.8584,-0.1949 2.2718,-0.1949 1.4147,0 2.0757,0.1949 2.0757,0.1949 z m 23.5722,-0.901 h -0.0037 v -0.0121 h 0.0037 z M 78.5588,33.773 h -0.0024 v -0.0122 h 0.0024 z M 62.7405,33.5904 62.0612,33.0912 v -7.3533 c -0.5198,-0.4018 -1.0567,-0.7793 -1.6168,-1.108 -0.2483,2.6541 -1.4256,4.9307 -3.1203,6.3186 -0.3737,-0.0974 -0.7523,-0.1826 -1.1334,-0.2435 V 25.47 c -0.2058,-0.0609 -1.0738,-0.3043 -2.5225,-0.3043 -1.4585,0 -2.4167,0.2434 -2.6407,0.3164 v 5.2108 c -0.4066,0.0731 -0.812,0.1461 -1.2126,0.2556 -1.6959,-1.3757 -2.8719,-3.6645 -3.1215,-6.3063 -0.5612,0.3165 -1.0981,0.6939 -1.618,1.1078 v 7.3291 l -0.6781,0.5113 0.0073,-7.743 c 1.2174,-1.0592 2.5798,-1.9114 4.0809,-2.5079 1.4889,-0.5966 3.0801,-0.9253 4.6811,-0.974 0.1351,0 0.2727,-0.0121 0.409,-0.0121 h 0.0073 c 1.7179,0 3.432,0.3408 5.0305,0.9617 1.4488,0.5722 2.8026,1.3879 3.9786,2.4105 l 0.1303,0.1218 z m 16.4259,-0.28 -3.4868,-3.5063 -0.3799,-0.3895 z M 45.9763,32.3973 V 25.677 l 0.3056,0.207 v 6.2941 z M 61.1555,32.3851 60.8499,32.166 v -6.2942 l 0.3056,-0.207 z m -5.9996,-5.0645 h -3.0923 l -0.6283,-1.461 c 0,0 0.8584,-0.207 2.2718,-0.207 1.4147,0 2.0757,0.207 2.0757,0.207 z M 43.886,25.1657 43.4745,24.9222 44.3364,24.143 c 2.6321,-2.3497 5.9326,-3.8715 9.2319,-3.8715 3.3005,0 6.6022,1.5218 9.2343,3.8715 l 0.8328,0.7427 -0.4115,0.2556 -0.7281,-0.6452 c -2.5456,-2.2767 -5.7353,-3.421 -8.925,-3.421 -3.191,0 -6.3819,1.1443 -8.9263,3.421 z m -0.8973,-0.5358 -0.2532,-0.146 1.6886,-1.5461 c 2.6078,-2.3254 5.8766,-3.4941 9.1479,-3.4941 3.2676,0 6.5364,1.1687 9.143,3.4941 l 1.6594,1.5095 -0.2508,0.1584 -1.5413,-1.4001 c -2.5688,-2.301 -5.7902,-3.4454 -9.0103,-3.4454 -3.2226,0 -6.4452,1.1444 -9.0152,3.4454 z m -1.9235,-2.5566 -0.4116,-0.2556 c 1.9151,-1.8992 3.1094,-3.068 3.1118,-3.0801 1.9735,-1.9723 4.3719,-3.8959 7.1002,-4.7116 -1.87,0.2679 -3.572,1.0714 -6.31,3.4941 l -4.1624,4.1271 -0.498,-0.3044 4.6823,-4.7236 c 2.3983,-2.4228 5.5966,-3.7497 9.003,-3.7497 3.4076,0 6.6071,1.3269 9.0055,3.7497 l 4.6469,4.675 -0.5284,0.3287 -4.1234,-4.0541 c -2.7417,-2.4106 -4.4218,-3.2262 -6.2553,-3.494 2.4337,0.7304 4.5521,2.3374 6.3929,4.1514 l 3.6681,3.6036 -0.3689,0.2314 c -3.3589,-3.275 -3.4746,-3.3967 -3.4746,-3.3967 -1.5936,-1.5584 -3.5525,-2.9706 -5.711,-3.7254 1.8542,1.3392 3.1057,3.701 3.7716,5.8803 -2.0148,-1.3392 -4.5508,-2.021 -7.0843,-2.021 -2.5176,0 -5.0317,0.6696 -7.0283,2.0575 0.6623,-2.1671 1.9236,-4.541 3.7753,-5.8924 -2.3631,0.84 -4.4631,2.4714 -6.2406,4.2123 0,0 -1.131,1.1079 -2.9608,2.8975 z"
         fill="#dadada"
         id="path19"
         style="display:inline" />
    </g>
  </g>
</svg>
