<?xml version="1.0" encoding="UTF-8" standalone="no"?>
<!-- Created with Inkscape (http://www.inkscape.org/) -->

<svg
   width="40mm"
   height="40mm"
   viewBox="0 0 40 40"
   version="1.1"
   id="svg1"
   xml:space="preserve"
   inkscape:version="1.3.2 (091e20e, 2023-11-25, custom)"
   sodipodi:docname="telegram.svg"
   xmlns:inkscape="http://www.inkscape.org/namespaces/inkscape"
   xmlns:sodipodi="http://sodipodi.sourceforge.net/DTD/sodipodi-0.dtd"
   xmlns="http://www.w3.org/2000/svg"
   xmlns:svg="http://www.w3.org/2000/svg"><sodipodi:namedview
     id="namedview1"
     pagecolor="#ffffff"
     bordercolor="#000000"
     borderopacity="0.25"
     inkscape:showpageshadow="2"
     inkscape:pageopacity="0.0"
     inkscape:pagecheckerboard="0"
     inkscape:deskcolor="#d1d1d1"
     inkscape:document-units="mm"
     inkscape:zoom="3.3756146"
     inkscape:cx="117.46009"
     inkscape:cy="113.3127"
     inkscape:window-width="1920"
     inkscape:window-height="1009"
     inkscape:window-x="-8"
     inkscape:window-y="-8"
     inkscape:window-maximized="1"
     inkscape:current-layer="layer1"
     showguides="true" /><defs
     id="defs1" /><g
     inkscape:label="Слой 1"
     inkscape:groupmode="layer"
     id="layer1"><g
       id="g4"
       transform="rotate(-90,47.013208,151.15205)"
       style="display:inline"><circle
         style="display:inline;opacity:1;fill:#26a5e5;fill-opacity:1;stroke-width:0.271686"
         id="path2-1"
         cx="28.942669"
         cy="78.884071"
         r="18.966608"
         transform="rotate(180,103.54602,101.51537)" /><path
         style="opacity:1;fill:#ffffff;fill-opacity:1;stroke-width:0.264583"
         d="m 185.65166,130.99434 -7.38943,-17.64912 c -0.34842,-0.82552 -1.21515,-1.37325 -1.67941,-0.12214 l -0.85498,2.99241 c -0.3404,1.03819 -0.27914,2.07637 0.45802,3.11456 l 5.3436,7.90851 c 0.35263,0.54075 -0.14697,0.84061 -0.45803,0.58016 l -5.86268,-5.98482 c -0.58439,-0.60139 -1.27745,-0.71923 -1.77102,0.0305 l -4.36648,6.44285 c -0.501,0.72079 -0.14034,2.11294 0.85498,2.25957 l 14.38189,2.35119 c 1.6062,0.22346 1.86209,-0.56105 1.34354,-1.92367 z"
         id="path4"
         sodipodi:nodetypes="ccccccccccccc" /></g></g></svg>
