<?xml version="1.0" encoding="UTF-8" standalone="no"?>
<!-- Created with Inkscape (http://www.inkscape.org/) -->

<svg
   width="40mm"
   height="40mm"
   viewBox="0 0 40 40"
   version="1.1"
   id="svg1"
   xml:space="preserve"
   inkscape:version="1.3.2 (091e20e, 2023-11-25, custom)"
   sodipodi:docname="viber.svg"
   xmlns:inkscape="http://www.inkscape.org/namespaces/inkscape"
   xmlns:sodipodi="http://sodipodi.sourceforge.net/DTD/sodipodi-0.dtd"
   xmlns="http://www.w3.org/2000/svg"
   xmlns:svg="http://www.w3.org/2000/svg"><sodipodi:namedview
     id="namedview1"
     pagecolor="#ffffff"
     bordercolor="#000000"
     borderopacity="0.25"
     inkscape:showpageshadow="2"
     inkscape:pageopacity="0.0"
     inkscape:pagecheckerboard="0"
     inkscape:deskcolor="#d1d1d1"
     inkscape:document-units="mm"
     inkscape:zoom="2.982107"
     inkscape:cx="79.641675"
     inkscape:cy="122.22901"
     inkscape:window-width="1920"
     inkscape:window-height="1009"
     inkscape:window-x="-8"
     inkscape:window-y="-8"
     inkscape:window-maximized="1"
     inkscape:current-layer="layer1"
     showguides="true" /><defs
     id="defs1" /><g
     inkscape:label="Слой 1"
     inkscape:groupmode="layer"
     id="layer1"><g
       id="g18"
       transform="rotate(-90,71.464028,78.083208)"><circle
         style="display:inline;opacity:1;fill:#7360f2;fill-opacity:1;stroke-width:0.271686"
         id="path2-1-4"
         cx="-129.549"
         cy="-26.642248"
         r="18.966608"
         transform="scale(-1)" /><path
         d="m 121.9016,21.715987 h -2.18074 c -0.55729,0.002 -1.18983,0.704663 -0.68678,1.254187 l 2.2102,2.150773 c -0.64931,8.026765 2.24091,10.796316 8.60638,10.807034 6.29995,0.0046 8.80893,-2.838971 8.65871,-9.044351 0.40005,-8.2363 -3.59471,-9.581119 -8.5726,-9.588562 -6.61562,-0.02083 -7.68011,2.96274 -8.03517,4.420919 z m 8.23206,-3.027708 c 4.30961,0.135444 7.28494,1.09912 6.88537,8.092014 0.1399,4.891041 -1.66799,7.628313 -7.02067,7.720584 -4.87092,-0.05287 -7.74035,-1.603112 -7.164,-9.054353 l -2.90421,-2.655135 c -0.37265,-0.283214 -0.1614,-0.49878 0,-0.50798 l 3.2029,0.104387 c 1.0481,-3.116466 3.56375,-3.710779 7.00061,-3.699517 z"
         style="opacity:1;fill:#ffffff;stroke-width:0.264583"
         id="path7"
         sodipodi:nodetypes="cccccccccccccccc" /><path
         d="m 132.14542,26.914119 c -0.26141,0.001 -0.27163,0.261079 -0.27082,0.316774 3e-5,0.690193 -0.55935,1.249797 -1.24954,1.250053 -0.13145,-0.01425 -0.3137,0.08573 -0.31367,0.282203 -3e-5,0.250113 0.24328,0.281334 0.30907,0.285204 0.99443,2.25e-4 1.80063,-0.80598 1.80041,-1.800407 -0.001,-0.103721 -0.0309,-0.333776 -0.27589,-0.333811 z"
         style="opacity:1;fill:#ffffff;stroke-width:0.23043"
         id="path10"
         sodipodi:nodetypes="cccccccc" /><path
         d="m 133.34317,26.504281 c -0.36173,0.01592 -0.26012,0.390981 -0.24632,0.728118 1.9e-4,1.404893 -1.13862,2.543936 -2.54352,2.544031 -0.36407,-0.01657 -0.8138,-0.09585 -0.81273,0.247014 0.005,0.207397 0.0224,0.329161 0.80513,0.337409 1.7201,1.9e-5 3.11456,-1.394435 3.11454,-3.114538 -0.003,-0.625444 -0.10056,-0.743631 -0.31722,-0.742072 z"
         style="opacity:1;fill:#ffffff;stroke-width:0.243498"
         id="path16"
         sodipodi:nodetypes="cccccccc" /><path
         style="opacity:1;fill:#ffffff;fill-opacity:1;stroke-width:0.264583"
         d="m 129.62052,31.597491 c 2.88383,0.01573 5.47405,-1.632784 5.31051,-5.19249 -0.0593,-0.3071 -0.53919,-0.246511 -0.53105,0.04425 -0.0836,3.358906 -1.97594,4.365285 -4.64669,4.631939 -0.29601,0.02402 -0.41128,0.298504 -0.2445,0.460473 0.0264,0.02562 0.0598,0.04846 0.11173,0.05583 z"
         id="path17"
         sodipodi:nodetypes="ccccscc" /><path
         style="opacity:1;fill:#ffffff;fill-opacity:1;stroke-width:0.264583"
         d="m 127.63675,27.918576 c -0.37578,-0.368739 -0.35818,-0.636231 -0.23566,-0.942665 0.51535,-1.243851 1.36479,-2.228231 2.59232,-2.718015 0.61653,-0.264985 0.88163,-0.04913 1.08407,0.141396 l 0.47133,0.518465 c 0.26956,0.270707 0.57365,0.299714 0.92695,-0.01571 l 1.74393,-1.288308 c 0.32296,-0.217904 0.35718,-0.616992 0.0157,-1.036931 l -0.89553,-0.926953 c -0.41545,-0.424371 -1.06055,-0.222837 -1.52398,0 -3.849,1.468367 -5.93631,4.130139 -7.19567,7.352782 -0.17966,0.542824 -0.0683,0.977808 0.29851,1.304018 l 0.95838,0.832689 c 0.33879,0.260553 0.80457,0.07374 0.9898,-0.188535 l 1.20975,-1.618239 c 0.39036,-0.536909 0.25189,-0.803683 0.0471,-1.005509 z"
         id="path18"
         sodipodi:nodetypes="ccccccccccccccccc" /></g></g></svg>
